{"title":"Fast Five 2011 DVDrip Stumpie1971","uid":6615601,"size":1473180473,"categoryP":"video","categoryS":"movies","magnet":"?xt=urn:btih:bcc553bce09520f56df33440ebb187600a3602ab&amp;dn=Fast+Five+2011+DVDrip+Stumpie1971&amp;tr=udp%3A%2F%2Ftracker.openbittorrent.com%3A80&amp;tr=udp%3A%2F%2Fopen.demonii.com%3A1337&amp;tr=udp%3A%2F%2Ftracker.coppersurfer.tk%3A6969&amp;tr=udp%3A%2F%2Fexodus.desync.com%3A6969","seeders":0,"leechers":1,"uploader":"stumpie1971","files":-1,"time":1313766494,"description":" &lt;a href=&quot; http://leetleech.org/images/73216101864405373579.jpg&quot; rel=&quot;nofollow&quot; target=&quot;_NEW&quot;&gt; http://leetleech.org/images/73216101864405373579.jpg&lt;/a&gt;\n\nScreens:\n  &lt;a href=&quot;\nhttp://leetleech.org/images/16491271386257102310.jpg&quot; rel=&quot;nofollow&quot; target=&quot;_NEW&quot;&gt;\nhttp://leetleech.org/images/16491271386257102310.jpg&lt;/a&gt;\n  &lt;a href=&quot;\nhttp://leetleech.org/images/64433258392723956481.jpg&quot; rel=&quot;nofollow&quot; target=&quot;_NEW&quot;&gt;\nhttp://leetleech.org/images/64433258392723956481.jpg&lt;/a&gt;\n  &lt;a href=&quot;\nhttp://leetleech.org/images/26745064665155213512.jpg&quot; rel=&quot;nofollow&quot; target=&quot;_NEW&quot;&gt;\nhttp://leetleech.org/images/26745064665155213512.jpg&lt;/a&gt;\n  &lt;a href=&quot;\nhttp://leetleech.org/images/19413412545157638829.jpg&quot; rel=&quot;nofollow&quot; target=&quot;_NEW&quot;&gt;\nhttp://leetleech.org/images/19413412545157638829.jpg&lt;/a&gt;\n\nAlternative:\n  &lt;a href=&quot;\nhttp://www.postimg.com/image/45000/photo-44609.jpg&quot; rel=&quot;nofollow&quot; target=&quot;_NEW&quot;&gt;\nhttp://www.postimg.com/image/45000/photo-44609.jpg&lt;/a&gt;\n  &lt;a href=&quot;\nhttp://www.postimg.com/image/45000/photo-44610.jpg&quot; rel=&quot;nofollow&quot; target=&quot;_NEW&quot;&gt;\nhttp://www.postimg.com/image/45000/photo-44610.jpg&lt;/a&gt;\n  &lt;a href=&quot;\nhttp://www.postimg.com/image/45000/photo-44611.jpg&quot; rel=&quot;nofollow&quot; target=&quot;_NEW&quot;&gt;\nhttp://www.postimg.com/image/45000/photo-44611.jpg&lt;/a&gt;\n  &lt;a href=&quot;\nhttp://www.postimg.com/image/45000/photo-44612.jpg&quot; rel=&quot;nofollow&quot; target=&quot;_NEW&quot;&gt;\nhttp://www.postimg.com/image/45000/photo-44612.jpg&lt;/a&gt;\n\nScreenCaps:\n  &lt;a href=&quot;\nhttp://www.postimg.com/image/45000/photo-44613.jpg&quot; rel=&quot;nofollow&quot; target=&quot;_NEW&quot;&gt;\nhttp://www.postimg.com/image/45000/photo-44613.jpg&lt;/a&gt;\n\nFast and Furious 5 Fast Five (2011) DVDRip XviD-MAX\n\nFormat                           : AVI\nFormat/Info                      : Audio Video Interleave\nFormat profile                   : OpenDML\nFile size                        : 1.37 GiB\nDuration                         : 2h 10mn\nOverall bit rate                 : 1 500 Kbps\nMovie name                       : Fast Five (2011)\nWriting application              : VirtualDubMod 1.5.10.2 (build 2542/release)\nWriting library                  : VirtualDubMod build 2542/release\nOriginal source form             : MAX TORRENTZ\nCopyright                        : SIGISMUNT\n\nVideo\nID                               : 0\nFormat                           : MPEG-4 Visual\nFormat profile                   : AdvancedSimple@L5\nFormat settings, BVOP            : Yes\nFormat settings, QPel            : No\nFormat settings, GMC             : No warppoints\nFormat settings, Matrix          : Custom\nCodec ID                         : XVID\nCodec ID/Hint                    : XviD\nDuration                         : 2h 10mn\nBit rate                         : 1 047 Kbps\nWidth                            : 720 pixels\nHeight                           : 304 pixels\nDisplay aspect ratio             : 2.35:1\nFrame rate                       : 23.976 fps\nResolution                       : 24 bits\nColorimetry                      : 4:2:0\nScan type                        : Progressive\nBits/(Pixel*Frame)               : 0.199\nStream size                      : 976 MiB (70%)\nWriting library                  : XviD 58\n\nAudio\nID                               : 1\nFormat                           : AC-3\nFormat/Info                      : Audio Coding 3\nCodec ID                         : 2000\nDuration                         : 2h 10mn\nBit rate mode                    : Constant\nBit rate                         : 448 Kbps\nChannel(s)                       : 6 channels\nChannel positions                : Front: L C R, Surround: L R, LFE\nSampling rate                    : 48.0 KHz\nStream size                      : 418 MiB (30%)\nAlignment                        : Aligned on interleaves\nInterleave, duration             : 64 ms (1.53 video frames)\nInterleave, preload duration     : 192 ms\n  &lt;a href=&quot;\nhttp://www.imdb.com/title/tt1596343/&quot; rel=&quot;nofollow&quot; target=&quot;_NEW&quot;&gt;\nhttp://www.imdb.com/title/tt1596343/&lt;/a&gt;\n \nSource: DVD (perfect a/v/sync quality,sample included)\nThis torrent is not seedbox supported,please seed it to the MAX\n\nNote:If you have something to offer as early releases,seedboxes,links,accounts,etc\nplease contact us on piratepedia[@]msn/gmail.com or our website torentz 3xforum ro\n\nFast and Furious 5 Fast Five (2011) DVDRip XviD-MAX Torrent Free Download\n  &lt;a href=&quot;\nhttp://thepiratebay.se/user/extremezone/0/7&quot; rel=&quot;nofollow&quot; target=&quot;_NEW&quot;&gt;\nhttp://thepiratebay.se/user/extremezone/0/7&lt;/a&gt;\n\nHow To Get Your Maxspeed (uTorrent)\n\nTorrent Client - Preferences - Bandwidth - Number of connections - Set aprox. 500 for each \nTorrent Client - Preferences - BiTorrent - Protocol Encryption - Forced\nBandwidth Allocation - High (Set download/upload limit - Unlimited)\nStop Other Active Torrents - Start downloading and wait for connections.\nEnjoy and Seed for at least 1:1 ratio. Don't forget to say thanks/leave reviews.\nBefore downloading you should check/google search sample &quot;release name&quot;&quot;sample&quot;.\nGreets to all actual/future p2p/scene QUALITY groups and affiliate websites.\nDon't trust IMDb robot or bad ratings,always watch some trailers first.\nIgnore stupid comments/fake/mislabeled/no-DVDrips/CAM/TS/RAR uploads.\nPlease spread this release/torrent to your friends/forums/etc.\nIf you need translation subs visit some subtitles sites.\nReport if you see online streaming or other spam links.\nRecommended movie player VLC PLAYER.","torrent":{"xt":"urn:btih:bcc553bce09520f56df33440ebb187600a3602ab","amp;dn":"Fast+Five+2011+DVDrip+Stumpie1971","amp;tr":["udp%3A%2F%2Ftracker.openbittorrent.com%3A80","udp%3A%2F%2Fopen.demonii.com%3A1337","udp%3A%2F%2Ftracker.coppersurfer.tk%3A6969","udp%3A%2F%2Fexodus.desync.com%3A6969"],"infoHash":"bcc553bce09520f56df33440ebb187600a3602ab","infoHashBuffer":{"type":"Buffer","data":[188,197,83,188,224,149,32,245,109,243,52,64,235,177,135,96,10,54,2,171]},"announce":[],"urlList":[]}}